<svg id="visual" viewBox="0 0 1980 1280" width="1980" height="1280" xmlns="http://www.w3.org/2000/svg" xmlns:xlink="http://www.w3.org/1999/xlink" version="1.1"><path d="M0 893L47.2 884.8C94.3 876.7 188.7 860.3 283 867.2C377.3 874 471.7 904 566 930.5C660.3 957 754.7 980 848.8 976C943 972 1037 941 1131.2 933C1225.3 925 1319.7 940 1414 929.7C1508.3 919.3 1602.7 883.7 1697 879.8C1791.3 876 1885.7 904 1932.8 918L1980 932L1980 1281L1932.8 1281C1885.7 1281 1791.3 1281 1697 1281C1602.7 1281 1508.3 1281 1414 1281C1319.7 1281 1225.3 1281 1131.2 1281C1037 1281 943 1281 848.8 1281C754.7 1281 660.3 1281 566 1281C471.7 1281 377.3 1281 283 1281C188.7 1281 94.3 1281 47.2 1281L0 1281Z" fill="#02aab0"></path><path d="M0 1003L47.2 988.5C94.3 974 188.7 945 283 950.7C377.3 956.3 471.7 996.7 566 998.5C660.3 1000.3 754.7 963.7 848.8 940.7C943 917.7 1037 908.3 1131.2 927.3C1225.3 946.3 1319.7 993.7 1414 1011C1508.3 1028.3 1602.7 1015.7 1697 1017.2C1791.3 1018.7 1885.7 1034.3 1932.8 1042.2L1980 1050L1980 1281L1932.8 1281C1885.7 1281 1791.3 1281 1697 1281C1602.7 1281 1508.3 1281 1414 1281C1319.7 1281 1225.3 1281 1131.2 1281C1037 1281 943 1281 848.8 1281C754.7 1281 660.3 1281 566 1281C471.7 1281 377.3 1281 283 1281C188.7 1281 94.3 1281 47.2 1281L0 1281Z" fill="#4cb6bb"></path><path d="M0 948L47.2 949.5C94.3 951 188.7 954 283 959.8C377.3 965.7 471.7 974.3 566 993C660.3 1011.7 754.7 1040.3 848.8 1060.2C943 1080 1037 1091 1131.2 1094C1225.3 1097 1319.7 1092 1414 1084.8C1508.3 1077.7 1602.7 1068.3 1697 1048.2C1791.3 1028 1885.7 997 1932.8 981.5L1980 966L1980 1281L1932.8 1281C1885.7 1281 1791.3 1281 1697 1281C1602.7 1281 1508.3 1281 1414 1281C1319.7 1281 1225.3 1281 1131.2 1281C1037 1281 943 1281 848.8 1281C754.7 1281 660.3 1281 566 1281C471.7 1281 377.3 1281 283 1281C188.7 1281 94.3 1281 47.2 1281L0 1281Z" fill="#71c3c6"></path><path d="M0 1080L47.2 1068.7C94.3 1057.3 188.7 1034.7 283 1029.2C377.3 1023.7 471.7 1035.3 566 1036.7C660.3 1038 754.7 1029 848.8 1022.3C943 1015.7 1037 1011.3 1131.2 1022.2C1225.3 1033 1319.7 1059 1414 1068.7C1508.3 1078.3 1602.7 1071.7 1697 1067.3C1791.3 1063 1885.7 1061 1932.8 1060L1980 1059L1980 1281L1932.8 1281C1885.7 1281 1791.3 1281 1697 1281C1602.7 1281 1508.3 1281 1414 1281C1319.7 1281 1225.3 1281 1131.2 1281C1037 1281 943 1281 848.8 1281C754.7 1281 660.3 1281 566 1281C471.7 1281 377.3 1281 283 1281C188.7 1281 94.3 1281 47.2 1281L0 1281Z" fill="#90cfd1"></path><path d="M0 1165L47.2 1163.5C94.3 1162 188.7 1159 283 1146.3C377.3 1133.7 471.7 1111.3 566 1095.5C660.3 1079.7 754.7 1070.3 848.8 1077.3C943 1084.3 1037 1107.7 1131.2 1114.7C1225.3 1121.7 1319.7 1112.3 1414 1100.7C1508.3 1089 1602.7 1075 1697 1077.7C1791.3 1080.3 1885.7 1099.7 1932.8 1109.3L1980 1119L1980 1281L1932.8 1281C1885.7 1281 1791.3 1281 1697 1281C1602.7 1281 1508.3 1281 1414 1281C1319.7 1281 1225.3 1281 1131.2 1281C1037 1281 943 1281 848.8 1281C754.7 1281 660.3 1281 566 1281C471.7 1281 377.3 1281 283 1281C188.7 1281 94.3 1281 47.2 1281L0 1281Z" fill="#addbdd"></path><path d="M0 1177L47.2 1165.8C94.3 1154.7 188.7 1132.3 283 1121.5C377.3 1110.7 471.7 1111.3 566 1117.7C660.3 1124 754.7 1136 848.8 1139.8C943 1143.7 1037 1139.3 1131.2 1135.7C1225.3 1132 1319.7 1129 1414 1128C1508.3 1127 1602.7 1128 1697 1132.2C1791.3 1136.3 1885.7 1143.7 1932.8 1147.3L1980 1151L1980 1281L1932.8 1281C1885.7 1281 1791.3 1281 1697 1281C1602.7 1281 1508.3 1281 1414 1281C1319.7 1281 1225.3 1281 1131.2 1281C1037 1281 943 1281 848.8 1281C754.7 1281 660.3 1281 566 1281C471.7 1281 377.3 1281 283 1281C188.7 1281 94.3 1281 47.2 1281L0 1281Z" fill="#c9e7e8"></path><path d="M0 1176L47.2 1179.7C94.3 1183.3 188.7 1190.7 283 1195.3C377.3 1200 471.7 1202 566 1195.5C660.3 1189 754.7 1174 848.8 1172C943 1170 1037 1181 1131.2 1189C1225.3 1197 1319.7 1202 1414 1202.5C1508.3 1203 1602.7 1199 1697 1189.3C1791.3 1179.7 1885.7 1164.3 1932.8 1156.7L1980 1149L1980 1281L1932.8 1281C1885.7 1281 1791.3 1281 1697 1281C1602.7 1281 1508.3 1281 1414 1281C1319.7 1281 1225.3 1281 1131.2 1281C1037 1281 943 1281 848.8 1281C754.7 1281 660.3 1281 566 1281C471.7 1281 377.3 1281 283 1281C188.7 1281 94.3 1281 47.2 1281L0 1281Z" fill="#e4f3f3"></path><path d="M0 1256L47.2 1245.7C94.3 1235.3 188.7 1214.7 283 1210.5C377.3 1206.3 471.7 1218.7 566 1221.7C660.3 1224.7 754.7 1218.3 848.8 1220.7C943 1223 1037 1234 1131.2 1238.8C1225.3 1243.7 1319.7 1242.3 1414 1239.5C1508.3 1236.7 1602.7 1232.3 1697 1225.5C1791.3 1218.7 1885.7 1209.3 1932.8 1204.7L1980 1200L1980 1281L1932.8 1281C1885.7 1281 1791.3 1281 1697 1281C1602.7 1281 1508.3 1281 1414 1281C1319.7 1281 1225.3 1281 1131.2 1281C1037 1281 943 1281 848.8 1281C754.7 1281 660.3 1281 566 1281C471.7 1281 377.3 1281 283 1281C188.7 1281 94.3 1281 47.2 1281L0 1281Z" fill="#ffffff"></path></svg>